<svg width="299" height="120" viewBox="0 0 299 120" fill="none" xmlns="http://www.w3.org/2000/svg">
<path opacity="0.2" d="M194.277 34.4888C193.628 36.2415 192.836 38.0722 191.973 39.9677L181.041 41.0648C181.093 40.7077 181.151 40.3247 181.21 39.9288C181.359 38.9615 181.515 37.9813 181.612 37.0984L194.277 34.4888Z" fill="white"/>
<path opacity="0.5" d="M189.913 1.57069C186.979 3.94008 185.889 6.98465 185.136 9.43842L195.126 0.350374C194.646 0.0647499 193.016 -0.42869 191.03 0.746265C190.637 0.991477 190.264 1.26714 189.913 1.57069Z" fill="white"/>
<path opacity="0.45" d="M195.535 0.636658L184.876 10.3089C184.457 11.8386 184.124 13.3904 183.876 14.9569L197.995 3.92138C197.462 2.63827 196.616 1.50901 195.535 0.636658Z" fill="white"/>
<path opacity="0.4" d="M198.994 10.3997L183.168 20.52C183.35 18.7413 183.544 17.1444 183.759 15.6254L198.17 4.34314V4.40812V4.45994C198.677 6.40046 198.954 8.39427 198.994 10.3997Z" fill="white"/>
<path opacity="0.35" d="M198.554 18.3834L182.669 26.1082C182.805 24.3879 182.942 22.7131 183.104 21.0708L199.014 10.9052C199.058 13.4062 198.904 15.9067 198.554 18.3834Z" fill="white"/>
<path opacity="0.3" d="M198.488 18.8837C198.142 21.2521 197.663 23.5991 197.053 25.9138L182.253 31.0227L182.292 30.5748C182.402 29.2311 182.519 27.9067 182.623 26.589L198.488 18.8837Z" fill="white"/>
<path opacity="0.25" d="M196.929 26.3744C196.228 28.9787 195.396 31.5462 194.437 34.0668L181.668 36.7024C181.824 35.2418 182.07 32.8529 182.207 31.4638L196.929 26.3744Z" fill="white"/>
<path d="M150.445 45.4078C150.445 45.4078 158.657 60.7796 163.974 70.4519C165.888 69.2543 167.679 67.8714 169.323 66.3232L150.445 45.4078Z" fill="white"/>
<path d="M174.243 59.968L150.568 44.5443L169.796 65.8428C171.489 64.0537 172.981 62.0835 174.243 59.968Z" fill="white"/>
<path d="M178.073 51.7177L150.712 43.8111L174.588 59.3906C175.987 56.9475 177.154 54.3786 178.073 51.7177Z" fill="white"/>
<path d="M180.059 43.8563L150.848 43.2072L178.255 51.0877C179.013 48.7191 179.616 46.3035 180.059 43.8563Z" fill="white"/>
<path d="M181.09 37.3196L151.061 42.6555L180.181 43.2399C180.421 41.9026 180.908 38.8126 181.09 37.3196Z" fill="white"/>
<path d="M181.691 31.7562L151.285 42.0972L181.178 36.7027C181.328 35.372 181.561 33.1843 181.691 31.7562Z" fill="white"/>
<path d="M181.805 30.536C181.909 29.32 182.008 28.1169 182.103 26.9268L151.535 41.5196L181.759 31.1332L181.805 30.536Z" fill="white"/>
<path d="M182.572 21.4869L151.848 40.8833L182.163 26.2775C182.293 24.6481 182.422 23.0383 182.572 21.4869Z" fill="white"/>
<path d="M183.194 16.1313L152.347 40.0328L182.668 20.7987C182.818 19.0914 182.999 17.5595 183.194 16.1313Z" fill="white"/>
<path d="M184.196 10.964L153.037 38.9747L183.346 15.3652C183.592 13.6385 183.878 12.2233 184.196 10.964Z" fill="white"/>
<path d="M187.237 3.38171L154.942 36.605L184.479 10.0485C184.874 7.64382 185.818 5.36258 187.237 3.38171Z" fill="white"/>
<path opacity="0.2" d="M104.471 34.4888C105.12 36.2415 105.912 38.0722 106.775 39.9677L117.707 41.0648C117.655 40.7077 117.596 40.3247 117.538 39.9288C117.389 38.9615 117.233 37.9813 117.136 37.0984L104.471 34.4888Z" fill="white"/>
<path opacity="0.5" d="M108.856 1.57069C111.79 3.94008 112.881 6.98465 113.634 9.43842L103.644 0.350374C104.117 0.0647499 105.747 -0.42869 107.74 0.746265C108.132 0.993062 108.505 1.26864 108.856 1.57069Z" fill="white"/>
<path opacity="0.45" d="M103.215 0.636658L113.874 10.3089C114.292 11.8386 114.626 13.3904 114.873 14.9569L100.748 3.92138C101.283 2.6377 102.131 1.50842 103.215 0.636658Z" fill="white"/>
<path opacity="0.4" d="M99.7656 10.3997L115.592 20.52C115.41 18.7413 115.215 17.1444 115.001 15.6254L100.59 4.34314V4.40812V4.45994C100.082 6.40046 99.8055 8.39427 99.7656 10.3997Z" fill="white"/>
<path opacity="0.35" d="M100.196 18.3834L116.08 26.1082C115.944 24.3879 115.808 22.7131 115.645 21.0708L99.7672 10.9052C99.7125 13.4053 99.8558 15.9059 100.196 18.3834Z" fill="white"/>
<path opacity="0.3" d="M100.262 18.8837C100.608 21.2521 101.087 23.5991 101.696 25.9138L116.497 31.0227L116.458 30.5748C116.348 29.2311 116.231 27.9067 116.127 26.589L100.262 18.8837Z" fill="white"/>
<path opacity="0.25" d="M101.816 26.3744C102.518 28.9809 103.349 31.5505 104.309 34.0733L117.078 36.7089C116.922 35.2483 116.675 32.8594 116.539 31.4703L101.816 26.3744Z" fill="white"/>
<path d="M148.303 45.4078C148.303 45.4078 140.084 60.7796 134.774 70.4519C132.858 69.2542 131.065 67.8713 129.419 66.3232L148.303 45.4078Z" fill="white"/>
<path d="M124.5 59.968L148.181 44.5443L128.979 65.8428C127.278 64.0519 125.777 62.0822 124.5 59.968Z" fill="white"/>
<path d="M120.676 51.7177L148.037 43.8176L124.162 59.3971C122.762 56.9519 121.595 54.3808 120.676 51.7177Z" fill="white"/>
<path d="M118.69 43.8563L147.902 43.2072L120.489 51.0877C119.732 48.719 119.132 46.3034 118.69 43.8563Z" fill="white"/>
<path d="M117.658 37.3196L147.681 42.6555L118.567 43.2399C118.327 41.9026 117.846 38.8126 117.658 37.3196Z" fill="white"/>
<path d="M117.059 31.7562L147.465 42.0972L117.604 36.7027C117.422 35.372 117.195 33.1843 117.059 31.7562Z" fill="white"/>
<path d="M116.943 30.536C116.839 29.3221 116.735 28.1212 116.645 26.9268L147.213 41.5196L116.989 31.1332L116.943 30.536Z" fill="white"/>
<path d="M116.17 21.4869L146.894 40.8833L116.585 26.2775C116.449 24.6481 116.319 23.0383 116.17 21.4869Z" fill="white"/>
<path d="M115.547 16.1313L146.42 40.0328L116.099 20.7987C115.923 19.0914 115.748 17.5595 115.547 16.1313Z" fill="white"/>
<path d="M114.554 10.964L145.713 38.9747L115.404 15.3652C115.151 13.6385 114.872 12.2233 114.554 10.964Z" fill="white"/>
<path d="M111.51 3.38171L143.831 36.605L114.295 10.0485C113.895 7.64056 112.942 5.35835 111.51 3.38171Z" fill="white"/>
<path d="M12.1325 94.048C12.4031 94.0589 12.6734 94.0216 12.9309 93.9377C14.7161 98.8258 18.7732 108.219 23.8625 119.449C23.1564 119.298 22.436 119.224 21.7139 119.228C20.9322 119.234 20.1525 119.308 19.3835 119.449C18.4046 116.176 17.174 112.984 15.7028 109.9H6.48496C5.09187 112.984 3.95836 116.178 3.09636 119.449C2.61097 119.308 2.10875 119.234 1.60337 119.228C1.06176 119.234 0.523082 119.309 0 119.449C4.77122 109.063 9.08799 99.3257 11.2237 93.9377C11.5236 93.9959 11.8274 94.0327 12.1325 94.048ZM7.21201 108.076H15.0018L11.0614 99.0401L7.21201 108.076Z" fill="white"/>
<path d="M28.5408 94.1588C28.7982 94.1708 29.056 94.1467 29.3067 94.0874C30.6569 95.6518 32.0396 97.2942 33.5327 98.8587L40.0955 105.785C42.2831 108.076 44.5032 110.374 47.3075 113.218V106.876C47.3075 103.526 47.3075 98.7872 46.8337 94.0874C47.2941 94.2303 47.7732 94.3047 48.2553 94.3081C48.7842 94.3024 49.31 94.2282 49.8198 94.0874C49.3383 99.0491 49.1217 104.033 49.1707 109.018C49.1707 112.913 49.1706 115.431 49.2096 116.632L49.3199 119.657C49.0898 119.621 48.8579 119.597 48.6253 119.586C48.4293 119.598 48.2342 119.622 48.0411 119.657C45.23 116.304 42.2509 113.095 39.1153 110.043C36.0189 107.018 32.7732 103.63 29.9299 100.605V102.883C29.9299 106.058 30.0792 112.471 30.5141 119.43C30.0178 119.278 29.5011 119.204 28.9821 119.209C28.4995 119.207 28.0197 119.281 27.5605 119.43C27.7099 118.008 28.0344 112.906 28.0344 107.44C28.0344 104.707 27.9305 97.5992 27.9305 94.0679C28.1256 94.1396 28.3333 94.1706 28.5408 94.1588Z" fill="white"/>
<path d="M65.2049 94.048C65.4776 94.059 65.7501 94.0216 66.0098 93.9377C67.7949 98.8258 71.8521 108.219 76.9414 119.449C76.2331 119.298 75.5105 119.224 74.7863 119.228C74.0045 119.235 73.2248 119.309 72.4558 119.449C71.4827 116.174 70.252 112.981 68.7752 109.9H59.5573C58.17 112.986 57.0366 116.179 56.1687 119.449C55.6833 119.308 55.1811 119.234 54.6757 119.228C54.1341 119.235 53.5954 119.309 53.0723 119.449C57.8435 109.063 62.1603 99.3257 64.296 93.9377C64.5961 93.9954 64.8997 94.0322 65.2049 94.048ZM60.2844 108.076H68.0741L64.1402 99.0401L60.2844 108.076Z" fill="white"/>
<path d="M82.1225 94.4448H88.244C89.4449 94.4448 93.8526 94.3344 94.8004 94.2241C94.7078 94.6507 94.66 95.0858 94.6576 95.5224C94.6516 95.9593 94.6995 96.3954 94.8004 96.8206C92.2317 96.4505 89.6381 96.2812 87.0431 96.3143C87.0042 98.3916 86.9717 105.402 86.9717 109.83C86.9717 113.763 86.9717 116.535 87.2249 119.489C86.4405 119.366 85.6491 119.292 84.8555 119.268C84.2309 119.281 83.6091 119.355 82.9989 119.489C83.1807 117.34 83.3949 112.238 83.3949 105.097C83.3949 103.961 83.3949 102.183 83.3949 99.7743C83.356 97.4763 83.3559 96.3143 83.3559 96.3143C80.6504 96.2575 77.9449 96.4269 75.2676 96.8206C75.346 96.3918 75.3937 95.958 75.4104 95.5224C75.4076 95.0858 75.3598 94.6507 75.2676 94.2241C76.0725 94.3409 80.9411 94.4448 82.1225 94.4448Z" fill="white"/>
<path d="M123.817 106.402C123.817 114.49 118.279 119.995 109.75 119.995C101.915 119.995 96.0527 115.146 96.0527 107.207C96.0527 99.2678 101.116 93.9058 110.113 93.9058C118.461 93.9058 123.817 99.1509 123.817 106.402ZM109.821 118.463C115.579 118.463 119.662 114.159 119.662 107.019C119.662 103.195 118.786 100.28 116.89 98.2746C115.965 97.3753 114.871 96.6676 113.671 96.1919C112.471 95.7163 111.189 95.4821 109.899 95.5027C104.797 95.5027 100.201 99.1121 100.201 107.019C100.201 113.984 104.141 118.463 109.821 118.463Z" fill="white"/>
<path d="M131.056 94.4448C131.827 94.4349 132.595 94.361 133.354 94.2241C133.133 100.384 133.029 104.649 133.029 110.985V117.366C133.789 117.438 135.107 117.438 136.126 117.438C138.429 117.45 140.73 117.305 143.013 117.003C142.918 117.396 142.868 117.799 142.864 118.204C142.857 118.622 142.907 119.039 143.013 119.443C142.903 119.443 138.528 119.223 135.139 119.223C132.296 119.223 131.458 119.262 129.057 119.443C129.31 115.218 129.381 112.699 129.381 106.396C129.381 102.754 129.238 97.1777 129.089 94.2241C129.734 94.3751 130.394 94.4492 131.056 94.4448Z" fill="white"/>
<path d="M143.518 94.4445C144.362 94.439 145.204 94.3651 146.037 94.2237C146.835 96.1712 147.335 97.2489 148.257 99.034C150.989 104.357 152.521 106.655 152.801 106.655C153.08 106.655 157.098 99.7674 159.292 94.2237C160.378 94.5183 161.523 94.5183 162.609 94.2237C161.843 95.3533 160.454 97.5084 158.455 100.715C155.858 104.909 154.372 107.421 153.755 108.953C153.755 115.035 153.898 118.463 153.969 119.411C153.487 119.256 152.982 119.181 152.476 119.19C151.632 119.137 150.785 119.211 149.964 119.411C150.146 118.171 150.185 116.71 150.185 109.245C146.575 103.266 143.803 98.4563 141.148 94.1914C141.929 94.3459 142.722 94.4306 143.518 94.4445Z" fill="white"/>
<path d="M178.312 94.1589C178.473 94.1626 178.633 94.1384 178.786 94.0875C179.623 95.8726 181.337 99.2807 183.979 104.214C186.621 109.148 188.426 112.341 189.302 113.724L196.118 101.046C198.007 97.5149 199.176 95.204 199.649 94.0875C199.862 94.1358 200.08 94.1598 200.299 94.1589C200.532 94.1545 200.764 94.1305 200.993 94.0875C202.415 107.168 203.687 117.554 204.2 119.45C203.513 119.332 202.819 119.259 202.123 119.229C201.375 119.226 200.629 119.3 199.896 119.45C199.896 117.502 199.422 111.796 198.293 100.793C194.58 107.389 189.549 117.152 188.861 119.45C188.693 119.407 188.521 119.383 188.348 119.378C188.187 119.382 188.028 119.406 187.874 119.45C187.225 117.918 186.705 116.788 186.491 116.386L183.388 110.446C181.532 106.915 179.857 103.818 178.292 101.085C177.424 107.171 176.926 113.304 176.799 119.45C176.349 119.313 175.881 119.239 175.41 119.229C174.821 119.231 174.235 119.306 173.664 119.45C174.43 115.477 176.832 100.066 177.416 94.1329C177.702 94.1265 178.104 94.1589 178.312 94.1589Z" fill="white"/>
<path d="M281.892 94.4448C282.531 94.4555 283.168 94.3812 283.788 94.2241C283.677 95.5224 283.496 98.0865 283.496 101.222C283.496 103.63 283.496 105.63 283.496 105.961C285.062 104.733 286.56 103.42 287.981 102.027C290.13 99.8716 294.356 95.4639 295.083 94.2371C295.705 94.3776 296.341 94.4516 296.978 94.4578C297.532 94.4463 298.083 94.3722 298.621 94.2371L298.692 94.4578C297.894 95.0421 295.816 97.0543 292.246 100.397C288.676 103.741 286.995 105.461 286.962 105.461C290.091 109.109 297.998 117.996 298.692 118.619V119.456C297.936 119.303 297.166 119.229 296.394 119.236C295.525 119.248 294.657 119.321 293.798 119.456C292.012 116.36 287.527 111.4 283.561 107.064L283.45 107.213V111.842C283.45 114.101 283.522 116.905 283.742 119.456C283.072 119.299 282.386 119.225 281.698 119.236C280.976 119.238 280.256 119.312 279.549 119.456C279.951 113.004 279.99 111.985 279.99 106.921C279.99 100.397 279.99 99.6704 279.659 94.2371C280.394 94.3889 281.143 94.4586 281.892 94.4448Z" fill="white"/>
<path d="M259.231 119.995C253.388 119.995 248.422 117.613 244.099 112.712C243.009 111.411 242.004 110.041 241.093 108.609C239.194 105.677 237.067 102.898 234.732 100.3C233.38 98.8153 231.74 97.6213 229.912 96.791C228.084 95.9607 226.106 95.5114 224.099 95.4704C216.731 95.4704 212.206 99.8196 212.206 106.986C212.206 115.516 219.957 118.21 224.105 118.21C231.077 118.21 235.933 113.302 236.965 108.68L237.341 107.006L240.211 111.446L239.97 111.796C238.224 114.382 235.856 116.488 233.084 117.92C230.312 119.353 227.225 120.066 224.105 119.995C213.07 119.995 207.948 114.906 208.058 106.765C208.169 98.8913 213.355 93.9058 224.105 93.9058C230.24 93.9058 234.647 95.7625 238.607 99.8586C240.444 101.793 242.094 103.897 243.534 106.142C244.797 108.049 246.165 109.885 247.63 111.641C250.37 114.886 253.888 118.21 259.231 118.21C267.533 118.21 270.357 112.407 270.357 106.986C270.357 101.566 267.533 95.691 259.231 95.691C256.43 95.7053 253.697 96.5567 251.384 98.1356C249.07 99.7145 247.282 101.949 246.248 104.552L245.735 105.922L243.054 101.89L243.359 101.501C247.312 96.4636 252.655 93.9058 259.25 93.9058C270.006 93.9058 274.531 100.287 274.531 106.778C274.531 113.27 269.987 119.995 259.231 119.995Z" fill="white"/>
</svg>
